<?xml version="1.0" standalone="no"?>
<!DOCTYPE svg PUBLIC "-//W3C//DTD SVG 20010904//EN"
 "http://www.w3.org/TR/2001/REC-SVG-20010904/DTD/svg10.dtd">
<svg version="1.0" xmlns="http://www.w3.org/2000/svg"
 width="500.000000pt" height="500.000000pt" viewBox="0 0 500.000000 500.000000"
 preserveAspectRatio="xMidYMid meet">

<g transform="translate(0.000000,500.000000) scale(0.100000,-0.100000)"
fill="#000000" stroke="none">
<path d="M1920 4819 c-569 -31 -1105 -269 -1460 -648 -135 -144 -206 -242
-286 -396 -71 -135 -112 -251 -145 -405 -33 -152 -34 -449 -1 -595 52 -240
148 -453 280 -628 l44 -58 -27 -252 c-73 -693 -71 -662 -53 -654 7 3 191 83
408 177 l395 170 80 -34 c147 -62 285 -102 468 -134 l109 -20 -6 37 c-3 20 -9
102 -12 182 -10 232 33 431 139 639 160 312 414 554 752 716 430 206 943 241
1423 97 46 -13 87 -22 90 -18 12 12 4 229 -13 323 -51 295 -170 543 -378 787
-156 182 -386 360 -612 473 -369 183 -768 264 -1195 241z m-434 -718 c47 -21
115 -85 138 -130 28 -53 38 -129 25 -190 -45 -219 -319 -305 -478 -151 -139
135 -115 352 52 457 72 45 178 51 263 14z m1390 0 c188 -83 226 -337 72 -476
-113 -102 -286 -98 -392 9 -58 57 -79 107 -84 193 -3 60 0 80 20 125 69 149
236 214 384 149z"/>
<path d="M3175 2915 c-452 -72 -818 -280 -1057 -600 -392 -525 -297 -1219 228
-1654 311 -258 734 -395 1162 -378 220 9 398 46 593 123 l88 35 302 -131 c166
-72 305 -128 309 -123 3 4 -9 159 -28 343 l-35 335 55 80 c132 191 195 381
205 615 16 390 -154 743 -484 1011 -231 187 -516 305 -846 349 -105 14 -393
11 -492 -5z m-210 -516 c55 -14 122 -70 146 -123 36 -79 19 -173 -43 -236 -70
-73 -153 -88 -243 -46 -86 40 -125 103 -125 199 0 113 91 207 208 216 7 1 33
-4 57 -10z m1063 -4 c94 -28 155 -111 153 -212 -2 -212 -280 -290 -398 -111
-24 36 -28 51 -28 117 0 66 4 81 27 114 30 45 80 81 129 95 48 14 59 14 117
-3z"/>
</g>
</svg>
